<svg id="Layer_1" data-name="Layer 1" xmlns="http://www.w3.org/2000/svg" width="46" height="37.06" viewBox="0 0 46 37.06">
  <defs>
    <style>
      .cls-1 {
        fill: #61661d;
      }

      .cls-2 {
        fill: #797d26;
      }

      .cls-3 {
        fill: #707221;
      }

      .cls-4 {
        fill: #2d2d2e;
      }
    </style>
  </defs>
  <title>favicon</title>
  <path id="Vector-5" class="cls-1" d="M23.52,13.19l2-3,1.19-1.7h12a1.31,1.31,0,0,0,.82-.4L40.71,6.3a1.6,1.6,0,0,0,.18-.6V5.11A1,1,0,0,0,40,4H17.69a.86.86,0,0,0-.76,1h0V5a.76.76,0,0,0,.11.33l2.19,3.27,1.18,1.69,2,3a.7.7,0,0,0,1,0h0Z"/>
  <g id="Group">
    <path id="Vector_2-5" data-name="Vector 2-5" class="cls-2" d="M42.12,35.14,31.73,19.65H26.62l2.46,3.57L33.64,30l3.28,4.86a4,4,0,0,0,1.28,1.29,4.76,4.76,0,0,0,1.55.8,4.53,4.53,0,0,0,1.64.1,3.81,3.81,0,0,0,1.64-.7Z"/>
    <path id="Vector_3-4" data-name="Vector 3-4" class="cls-2" d="M39.29,23.22l-.45-.59-.64-.9L37,20.05l-.27-.4H34.55l.82,1.09.19.3,1.09,1.59.46.59,1.09,1.49L45,34.35a6.84,6.84,0,0,0,1-1.79Z"/>
  </g>
  <g id="Group_2" data-name="Group 2">
    <path id="Vector_4-2" data-name="Vector 4-2" class="cls-3" d="M45,5,35.65,18.18l-1.1,1.5h2.19l1.46-2,1.09-1.61L46,6.65A6.19,6.19,0,0,0,45,5Z"/>
    <path id="Vector_5" data-name="Vector 5" class="cls-3" d="M38.75,8.56H34.1l-4.84,7.31-.18.3-1.46,2.21-1,1.4h5.11L39.48,8.16A.94.94,0,0,1,38.75,8.56Z"/>
  </g>
  <path id="Vector_13" data-name="Vector 13" class="cls-4" d="M26.71,28.64,25.53,27l-2-3a.72.72,0,0,0-1-.16.61.61,0,0,0-.16.16l-2,3-1.18,1.69h-7.3l4.81-7.25.19-.3,1.45-2.18,1-1.39-2.46-3.58L12.31,7.19,9.12,2.32A4.26,4.26,0,0,0,7.84,1,3,3,0,0,0,6.38.24,4.8,4.8,0,0,0,4.65.14,4.28,4.28,0,0,0,3,.93l.82,1.19,10.39,15.5L6.47,29.14,5.29,30.92a1.6,1.6,0,0,0-.18.6v.59a1.06,1.06,0,0,0,1,1.1H28.26a.86.86,0,0,0,.77-.94s0,0,0-.06h0a.76.76,0,0,0-.11-.33Z"/>
  <path id="Vector_14" data-name="Vector 14" class="cls-4" d="M11.4,17.49l-.73-1.1-.19-.29L9.39,14.49l-.46-.6-1.09-1.4L.91,2.82A6.3,6.3,0,0,0,0,4.61l6.66,9.33.45.6.64.89,1.18,1.69.28.4-1.46,2-1.09,1.6L0,30.49a7.87,7.87,0,0,0,.91,1.78l9.39-13.2Z"/>
</svg>
