<svg id="Layer_1" data-name="Layer 1" xmlns="http://www.w3.org/2000/svg" width="34" height="34" viewBox="0 0 34 34">
  <defs>
    <style>
      .cls-1 {
        fill: #ea4435;
      }
    </style>
  </defs>
  <title>ka</title>
  <g id="red">
    <path id="Vector" class="cls-1" d="M33.66,13.6H20.4V.34A16.27,16.27,0,0,0,17,0a16.27,16.27,0,0,0-3.4.34V13.6H.34A16.13,16.13,0,0,0,0,17a16.13,16.13,0,0,0,.34,3.4H13.6V33.66a17.17,17.17,0,0,0,6.8,0V20.4H33.66a17.17,17.17,0,0,0,0-6.8Z"/>
    <path id="Vector_2" data-name="Vector 2" class="cls-1" d="M6.8,10.2H9.07L8.61,7.48l2.72.45V5.67l-2.72.45L9.07,3.4H6.8l.45,2.72L4.53,5.67V7.93l2.72-.45Z"/>
    <path id="Vector_3" data-name="Vector 3" class="cls-1" d="M24.93,10.2H27.2l-.45-2.72,2.72.45V5.67l-2.72.45L27.2,3.4H24.93l.46,2.72-2.72-.45V7.93l2.72-.45Z"/>
    <path id="Vector_4" data-name="Vector 4" class="cls-1" d="M9.07,23.8H6.8s.36,1.63.5,2.72l-2.77-.45v2.26l2.77-.45C7.16,29,6.8,30.6,6.8,30.6H9.07S8.7,29,8.57,27.88l2.76.45V26.07l-2.76.45C8.7,25.45,9.07,23.8,9.07,23.8Z"/>
    <path id="Vector_5" data-name="Vector 5" class="cls-1" d="M27.2,23.8H24.93l.46,2.72-2.72-.45v2.26l2.72-.45-.46,2.72H27.2l-.45-2.72,2.72.45V26.07l-2.72.45Z"/>
  </g>
</svg>
