<svg id="Layer_1" data-name="Layer 1" xmlns="http://www.w3.org/2000/svg" xmlns:xlink="http://www.w3.org/1999/xlink" width="268.39" height="208.61" viewBox="0 0 268.39 208.61">
  <defs>
    <style>
      .cls-1, .cls-11 {
        fill: #fff;
      }

      .cls-10, .cls-14, .cls-15, .cls-2, .cls-3, .cls-8, .cls-9 {
        fill: none;
      }

      .cls-11, .cls-14, .cls-3 {
        stroke: #2d2d2e;
      }

      .cls-10, .cls-11, .cls-15, .cls-3, .cls-9 {
        stroke-linecap: round;
      }

      .cls-11, .cls-15, .cls-3, .cls-8, .cls-9 {
        stroke-linejoin: round;
      }

      .cls-4 {
        fill: #2d2d2e;
      }

      .cls-5 {
        fill: #61661d;
      }

      .cls-6 {
        fill: #797d26;
      }

      .cls-7 {
        fill: #707221;
      }

      .cls-8, .cls-9 {
        stroke: #707221;
      }

      .cls-10, .cls-8, .cls-9 {
        stroke-width: 3px;
      }

      .cls-10 {
        stroke: blue;
      }

      .cls-12 {
        fill: red;
      }

      .cls-13 {
        fill: #fc0000;
      }

      .cls-14 {
        stroke-width: 4px;
      }

      .cls-15 {
        stroke: #696969;
      }

      .cls-16 {
        fill: #1c75bc;
      }

      .cls-17 {
        fill: #ea4435;
      }

      .cls-18 {
        fill: #34a751;
      }

      .cls-19 {
        fill: #547dbe;
      }

      .cls-20 {
        fill: #f8bb16;
      }

      .cls-21 {
        mask: url(#mask);
      }

      .cls-22 {
        clip-path: url(#clip-path);
      }

      .cls-23, .cls-24 {
        fill-rule: evenodd;
      }

      .cls-24 {
        fill: #ff004d;
      }
    </style>
    <mask id="mask" x="44.91" y="88.9" width="24" height="19" maskUnits="userSpaceOnUse">
      <g id="path-2-inside-1_323_9609" data-name="path-2-inside-1 323 9609">
        <path class="cls-1" d="M47.91,104.9v-4.29a9,9,0,0,1,18,0v4.29"/>
      </g>
    </mask>
    <clipPath id="clip-path">
      <rect id="SVGID" class="cls-2" x="137.39" y="121.51" width="50" height="16.89"/>
    </clipPath>
  </defs>
  <title>sprite</title>
  <g id="facebook-icon">
    <path id="Vector" class="cls-3" d="M19.64,21H8.36A2.36,2.36,0,0,1,6,18.64H6V7.36A2.36,2.36,0,0,1,8.36,5H19.64A2.36,2.36,0,0,1,22,7.36h0V18.65A2.36,2.36,0,0,1,19.64,21Z"/>
    <path id="Vector_2" data-name="Vector 2" class="cls-4" d="M16.51,9.75V8.17H14.79A2,2,0,0,0,13,9.92v1.69H11.49V13.4H13v4.44h1.76V13.38h1.56l.2-1.75H14.78V10.35a.59.59,0,0,1,.57-.61h1.16Z"/>
  </g>
  <g id="gmail-icon">
    <path id="Vector-2" class="cls-3" d="M44.65,21H33.36A2.35,2.35,0,0,1,31,18.66h0V7.36A2.35,2.35,0,0,1,33.34,5h11.3A2.35,2.35,0,0,1,47,7.34h0v11.3A2.35,2.35,0,0,1,44.66,21h0Z"/>
    <path id="Vector_2-2" data-name="Vector 2-2" class="cls-4" d="M38.4,11.51l.89-.91a3.33,3.33,0,0,0-2.83-.6,2.71,2.71,0,0,0-2.29,2.36,3.33,3.33,0,0,0,.72,2.75,2.9,2.9,0,0,0,2.42,1c1.36,0,3-1.12,2.86-3.67h-3v1.2h1.71a1.56,1.56,0,0,1-1.45,1.2,1.75,1.75,0,0,1-2-1.44h0a1.73,1.73,0,0,1,1.2-2.13h.13A2.14,2.14,0,0,1,38.4,11.51Z"/>
    <path id="Vector_3" data-name="Vector 3" class="cls-4" d="M43.89,12.44H42.78v-1.1H42v1.1H40.88v.8H42v1.1h.79v-1.1H43.9Z"/>
  </g>
  <g id="instagram-icon">
    <path id="Vector-3" class="cls-3" d="M68.64,21H57.36A2.35,2.35,0,0,1,55,18.66h0V7.36A2.35,2.35,0,0,1,57.34,5h11.3A2.35,2.35,0,0,1,71,7.34h0v11.3A2.35,2.35,0,0,1,68.66,21h0Z"/>
    <path id="Vector_2-3" data-name="Vector 2-3" class="cls-4" d="M64.91,18H61.06A3.11,3.11,0,0,1,58,14.91V11.06A3.11,3.11,0,0,1,61.06,8h3.85A3.11,3.11,0,0,1,68,11.06v3.85A3.12,3.12,0,0,1,64.91,18ZM61.06,9.07a2,2,0,0,0-2,2v3.85a2,2,0,0,0,2,2h3.85a2,2,0,0,0,2-2V11.06a2,2,0,0,0-2-2Z"/>
    <path id="Vector_3-2" data-name="Vector 3-2" class="cls-4" d="M63,15.56A2.58,2.58,0,1,1,65.57,13v0h0A2.59,2.59,0,0,1,63,15.56Zm0-4.14A1.56,1.56,0,1,0,64.55,13,1.55,1.55,0,0,0,63,11.42Z"/>
    <path id="Vector_4" data-name="Vector 4" class="cls-4" d="M65.69,10.7a.44.44,0,1,0-.44-.44.43.43,0,0,0,.42.44h0Z"/>
  </g>
  <g>
    <path id="Vector-4" class="cls-3" d="M92.64,21H81.36A2.35,2.35,0,0,1,79,18.66h0V7.36A2.35,2.35,0,0,1,81.34,5h11.3A2.35,2.35,0,0,1,95,7.34h0v11.3A2.36,2.36,0,0,1,92.64,21Z"/>
    <path id="Vector_2-4" data-name="Vector 2-4" class="cls-4" d="M87,17.88A4.87,4.87,0,0,1,84.24,17l-2,.78.7-2.06A4.86,4.86,0,1,1,89.69,17h0a4.81,4.81,0,0,1-2.75.83Zm-2.7-1.36.1.07a4.4,4.4,0,1,0-1-1l.06.09L83,17.05Z"/>
  </g>
  <path id="Vector_3-3" data-name="Vector 3-3" class="cls-4" d="M89.74,14.22a.22.22,0,0,1,.05.17,1.34,1.34,0,0,1-1.38,1.3h0a1.23,1.23,0,0,1-.62-.17,5.27,5.27,0,0,1-3.59-3.31c-.42-1.52.8-1.92,1.06-1.83a2.47,2.47,0,0,1,.8,1.47c-.09.24-.51.47-.5.73s1.63,1.83,2.09,1.7.34-.57.65-.63A2.47,2.47,0,0,1,89.74,14.22Z"/>
  <g id="maxima-logo">
    <path id="Vector-5" class="cls-5" d="M25.52,49.7l2-3L28.71,45h12a1.31,1.31,0,0,0,.82-.4l1.18-1.79a1.6,1.6,0,0,0,.18-.6v-.59A1,1,0,0,0,42,40.53H19.69a.86.86,0,0,0-.76.95h0v.05a.76.76,0,0,0,.11.33l2.19,3.27,1.18,1.69,2,3a.7.7,0,0,0,1,0h0Z"/>
    <g id="Group">
      <path id="Vector_2-5" data-name="Vector 2-5" class="cls-6" d="M44.12,71.65,33.73,56.16H28.62l2.46,3.57,4.56,6.76,3.28,4.86a4,4,0,0,0,1.28,1.29,4.76,4.76,0,0,0,1.55.8,4.53,4.53,0,0,0,1.64.1,3.81,3.81,0,0,0,1.64-.7Z"/>
      <path id="Vector_3-4" data-name="Vector 3-4" class="cls-6" d="M41.29,59.73l-.45-.59-.64-.9L39,56.56l-.27-.4H36.55l.82,1.09.19.3,1.09,1.59.46.59,1.09,1.49L47,70.86a6.84,6.84,0,0,0,1-1.79Z"/>
    </g>
    <g id="Group_2" data-name="Group 2">
      <path id="Vector_4-2" data-name="Vector 4-2" class="cls-7" d="M47,41.46,37.65,54.69l-1.1,1.5h2.19l1.46-2,1.09-1.61L48,43.16A6.19,6.19,0,0,0,47,41.46Z"/>
      <path id="Vector_5" data-name="Vector 5" class="cls-7" d="M40.75,45.07H36.1l-4.84,7.31-.18.3-1.46,2.21-1,1.4h5.11l7.75-11.62A.94.94,0,0,1,40.75,45.07Z"/>
    </g>
    <g id="Group_3" data-name="Group 3">
      <path id="Vector_6" data-name="Vector 6" class="cls-4" d="M100.55,44a14.27,14.27,0,0,0-4.28-3.68,11.39,11.39,0,0,0-11.58.4A13.81,13.81,0,0,0,80,45.49a14.92,14.92,0,0,0-4.65-4.77,11.42,11.42,0,0,0-6.2-1.79,11,11,0,0,0-4.28.89,13.85,13.85,0,0,0-3.74,2.39,4.07,4.07,0,0,0-.28-1.69,2.11,2.11,0,0,0-.82-1A4.94,4.94,0,0,0,58.8,39a7.3,7.3,0,0,0-1.55-.1H55.7V64.16a7.45,7.45,0,0,0,.36,2.48,7.16,7.16,0,0,0,1.1,2.08,6.33,6.33,0,0,0,1.73,1.49,4.35,4.35,0,0,0,2.28.6V55.32a13.45,13.45,0,0,1,.55-3.78,13.89,13.89,0,0,1,1.54-3.37,8.59,8.59,0,0,1,2.56-2.39,6.81,6.81,0,0,1,6.74,0,8.59,8.59,0,0,1,2.56,2.39,10.35,10.35,0,0,1,1.64,3.37,13.44,13.44,0,0,1,.54,3.78V70.91h5.47V55.32a13.21,13.21,0,0,1,2.1-7.15,8.81,8.81,0,0,1,2.55-2.39,6.83,6.83,0,0,1,6.75,0,8.81,8.81,0,0,1,2.55,2.39,10.06,10.06,0,0,1,1.64,3.37,12.76,12.76,0,0,1,.55,3.78v1.59c0,1.19,0,2.58-.09,4.17a23.87,23.87,0,0,0,.27,4.47,8.26,8.26,0,0,0,1.55,3.67,4.35,4.35,0,0,0,3.65,1.59V55.32a19.49,19.49,0,0,0-1-6.06A15.65,15.65,0,0,0,100.55,44Z"/>
      <path id="Vector_7" data-name="Vector 7" class="cls-4" d="M132.37,45.29a10,10,0,0,0-2.1-2.78,19.19,19.19,0,0,0-2.82-2,16.71,16.71,0,0,0-3.28-1.19,13.53,13.53,0,0,0-3.29-.4,15.54,15.54,0,0,0-5.56,1,11.49,11.49,0,0,0-4.65,3.28c.28.2.55.5.91.8l1.1.89a4.51,4.51,0,0,0,1.18.69,2.24,2.24,0,0,0,1,.3,2.9,2.9,0,0,0,1-.3c.45-.19.91-.39,1.46-.59a8.64,8.64,0,0,1,1.73-.6,5.92,5.92,0,0,1,1.82-.29,9.54,9.54,0,0,1,2.19.29,9.34,9.34,0,0,1,2.28.9,5.46,5.46,0,0,1,1.82,1.59,3.87,3.87,0,0,1,.73,2.28v3.28a1.36,1.36,0,0,0,.09.69,11,11,0,0,0-3.37-1.29,14.12,14.12,0,0,0-3.55-.4,15.73,15.73,0,0,0-4.2.6,13.72,13.72,0,0,0-4,1.89,10.67,10.67,0,0,0-3,3.17,9.07,9.07,0,0,0,0,8.94,10.59,10.59,0,0,0,3,3.18,14.29,14.29,0,0,0,4,2,16.13,16.13,0,0,0,4.2.59,16.5,16.5,0,0,0,4.37-.59,11.65,11.65,0,0,0,3.92-2,9,9,0,0,0,1.82,1.49,4.56,4.56,0,0,0,2.19.6V47.87a4.07,4.07,0,0,0-.27-1.29A4,4,0,0,1,132.37,45.29ZM127,63.56a5.48,5.48,0,0,1-1.82,1.49,8.93,8.93,0,0,1-2.28.89,8.14,8.14,0,0,1-4.38,0,8.93,8.93,0,0,1-2.28-.89,6.88,6.88,0,0,1-1.82-1.49,4,4,0,0,1,0-4.57,7.89,7.89,0,0,1,1.82-1.59,9.9,9.9,0,0,1,2.28-.89,8.14,8.14,0,0,1,4.38,0,9.9,9.9,0,0,1,2.28.89A5.94,5.94,0,0,1,127,59a3.7,3.7,0,0,1,.73,2.29A3.23,3.23,0,0,1,127,63.56Z"/>
      <path id="Vector_8" data-name="Vector 8" class="cls-4" d="M153.25,54.72l.09.1c.45-.69,1-1.69,1.82-2.78s1.55-2.28,2.28-3.48A34.89,34.89,0,0,0,159.36,45a7.15,7.15,0,0,0,.82-3,5.69,5.69,0,0,0-.64-2.68,6.31,6.31,0,0,0-1.64-2.19L150,49.66l-7.12-10.73h-6.47l10.3,15.89L136.29,70.91h6.47l7.12-11.12,7.2,11.12h6.47Z"/>
      <path id="Vector_9" data-name="Vector 9" class="cls-4" d="M225.27,44A14.35,14.35,0,0,0,221,40.32a11.39,11.39,0,0,0-11.58.4,13.79,13.79,0,0,0-4.65,4.77,14.92,14.92,0,0,0-4.65-4.77,11.42,11.42,0,0,0-6.2-1.79,11.13,11.13,0,0,0-4.29.89,14,14,0,0,0-3.73,2.39,4.23,4.23,0,0,0-.28-1.69,2.11,2.11,0,0,0-.82-1,5.33,5.33,0,0,0-1.27-.5,7.3,7.3,0,0,0-1.55-.1h-1.55V64.16a7.45,7.45,0,0,0,.36,2.48,7.16,7.16,0,0,0,1.1,2.08,6.33,6.33,0,0,0,1.73,1.49,4.35,4.35,0,0,0,2.28.6V55.32a13.44,13.44,0,0,1,.54-3.78A12.75,12.75,0,0,1,188,48.17a8.59,8.59,0,0,1,2.56-2.39,6.81,6.81,0,0,1,6.74,0,8.59,8.59,0,0,1,2.56,2.39,10.66,10.66,0,0,1,1.64,3.37,13.44,13.44,0,0,1,.54,3.78V70.91h5.47V55.32a13.21,13.21,0,0,1,2.1-7.15,8.81,8.81,0,0,1,2.55-2.39,6.83,6.83,0,0,1,6.75,0,8.81,8.81,0,0,1,2.55,2.39,10.06,10.06,0,0,1,1.64,3.37,12.76,12.76,0,0,1,.55,3.78v1.59c0,1.19,0,2.58-.09,4.17a23.87,23.87,0,0,0,.27,4.47,8.26,8.26,0,0,0,1.55,3.67A4.35,4.35,0,0,0,229,70.81V55.32a19.83,19.83,0,0,0-1-6.06A17.12,17.12,0,0,0,225.27,44Z"/>
      <path id="Vector_10" data-name="Vector 10" class="cls-4" d="M257.54,46.58a7.32,7.32,0,0,0-.54-1.29,10,10,0,0,0-2.1-2.78,17,17,0,0,0-2.83-2,16.71,16.71,0,0,0-3.28-1.19,13.39,13.39,0,0,0-3.28-.4,15.54,15.54,0,0,0-5.56,1,11.39,11.39,0,0,0-4.65,3.28c.27.2.55.5.91.8l1.09.89a4.57,4.57,0,0,0,1.19.69,2.2,2.2,0,0,0,1,.3,2.9,2.9,0,0,0,1-.3c.45-.19.91-.39,1.45-.59a9,9,0,0,1,1.74-.6,5.92,5.92,0,0,1,1.82-.29,9.54,9.54,0,0,1,2.19.29,9.34,9.34,0,0,1,2.28.9,5.46,5.46,0,0,1,1.82,1.59,3.87,3.87,0,0,1,.73,2.28v3.28a1.36,1.36,0,0,0,.09.69,11,11,0,0,0-3.37-1.29,14.25,14.25,0,0,0-3.56-.4,15.6,15.6,0,0,0-4.19.6,13.72,13.72,0,0,0-4,1.89,10.67,10.67,0,0,0-3,3.17,9,9,0,0,0,0,8.94,10.59,10.59,0,0,0,3,3.18,14.29,14.29,0,0,0,4,2,16,16,0,0,0,4.19.59,16.63,16.63,0,0,0,4.38-.59,11.65,11.65,0,0,0,3.92-2,8.66,8.66,0,0,0,1.82,1.49,4.56,4.56,0,0,0,2.19.6V47.87C257.82,47.47,257.73,47.07,257.54,46.58Zm-5.83,17a5.82,5.82,0,0,1-1.82,1.49,8.93,8.93,0,0,1-2.28.89,8.14,8.14,0,0,1-4.38,0,8.93,8.93,0,0,1-2.28-.89,6.88,6.88,0,0,1-1.82-1.49,4,4,0,0,1,0-4.57A7.6,7.6,0,0,1,241,57.4a9.9,9.9,0,0,1,2.28-.89,8.14,8.14,0,0,1,4.38,0,9.9,9.9,0,0,1,2.28.89,5.89,5.89,0,0,1,1.77,1.6,4,4,0,0,1,0,4.57Z"/>
      <path id="Vector_11" data-name="Vector 11" class="cls-4" d="M175.22,45.39a8.17,8.17,0,0,0-.37-2.19,7.13,7.13,0,0,0-1.09-2.08A6.29,6.29,0,0,0,172,39.63a4.35,4.35,0,0,0-2.28-.6V64.45a8.16,8.16,0,0,0,.36,2.19,7.16,7.16,0,0,0,1.1,2.08,6.33,6.33,0,0,0,1.73,1.49,4.35,4.35,0,0,0,2.28.6V45.39Z"/>
      <path id="Vector_12" data-name="Vector 12" class="cls-4" d="M173.85,31.18A6.78,6.78,0,0,0,172,29.7a6.14,6.14,0,0,0-2.37-.7v4a7.58,7.58,0,0,0,.36,2,7.23,7.23,0,0,0,1.19,2.18A6.54,6.54,0,0,0,173,38.63a6.14,6.14,0,0,0,2.37.7v-4a7.58,7.58,0,0,0-.36-2A6.6,6.6,0,0,0,173.85,31.18Z"/>
      <path id="Vector_13" data-name="Vector 13" class="cls-4" d="M28.71,65.15l-1.18-1.69-2-3a.72.72,0,0,0-1-.16.61.61,0,0,0-.16.16l-2,3-1.18,1.69h-7.3L18.7,57.9l.19-.3,1.45-2.18,1-1.39-2.46-3.58L14.31,43.7l-3.19-4.87a4.26,4.26,0,0,0-1.28-1.29,3,3,0,0,0-1.46-.79,4.8,4.8,0,0,0-1.73-.1A4.28,4.28,0,0,0,5,37.44l.82,1.19,10.39,15.5L8.47,65.65,7.29,67.43a1.6,1.6,0,0,0-.18.6v.59a1.06,1.06,0,0,0,1,1.1H30.26a.86.86,0,0,0,.77-.94v-.06h0a.76.76,0,0,0-.11-.33Z"/>
      <path id="Vector_14" data-name="Vector 14" class="cls-4" d="M13.4,54l-.73-1.1-.19-.29L11.39,51l-.46-.6L9.84,49,2.91,39.33A6.43,6.43,0,0,0,2,41.12l6.66,9.33.45.6.64.89,1.18,1.69.28.4L9.75,56,8.66,57.6,2,67a7.87,7.87,0,0,0,.91,1.78l9.39-13.2Z"/>
    </g>
  </g>
  <g id="search-icon">
    <ellipse class="cls-3" cx="113" cy="11.24" rx="8" ry="7.95"/>
    <path class="cls-3" d="M117,18l2.57,5.29"/>
  </g>
  <path id="heart" class="cls-8" d="M26,87.82c-2.71-2.52-7.56-2.56-10,2.84-3-5.4-7.28-5.36-10-2.84a6.1,6.1,0,0,0-.48,8.61,5.44,5.44,0,0,0,.48.48l10,9.27,10-9.27a6.13,6.13,0,0,0,.43-8.66h0C26.29,88.1,26.15,88,26,87.82Z"/>
  <g id="cart-icon">
    <path id="Path_6" data-name="Path 6" class="cls-9" d="M84,84.29,89,86l2,13h14.25"/>
    <g id="Ellipse_4" data-name="Ellipse 4">
      <path id="Vector-6" class="cls-7" d="M92.32,106.29A2.29,2.29,0,1,0,90,104,2.33,2.33,0,0,0,92.32,106.29Z"/>
      <path id="Vector_2-6" data-name="Vector 2-6" class="cls-7" d="M92.32,105.51A1.51,1.51,0,1,0,90.77,104a1.52,1.52,0,0,0,1.55,1.51Z"/>
    </g>
    <g id="Ellipse_4_1_2" data-name="Ellipse 4 1 2">
      <path id="Vector_3-5" data-name="Vector 3-5" class="cls-7" d="M102.69,106.29a2.29,2.29,0,1,0-2.36-2.29,2.32,2.32,0,0,0,2.35,2.29h0Z"/>
      <path id="Vector_4-3" data-name="Vector 4-3" class="cls-7" d="M102.69,105.51a1.51,1.51,0,1,0-1.56-1.51,1.52,1.52,0,0,0,1.56,1.51Z"/>
    </g>
    <path class="cls-7" d="M89,90.11a1,1,0,0,1,.93-1l14.77-1.06a1,1,0,0,1,1.07.92,1,1,0,0,1,0,.24l-1.17,6.94a1,1,0,0,1-.82.82L92.26,98.84a1,1,0,0,1-1-.53l-2.08-4a1,1,0,0,1-.11-.46Z"/>
  </g>
  <g id="burger-menu-icon">
    <path id="bot" class="cls-10" d="M133,19.08h12"/>
    <path id="mid" class="cls-10" d="M133,13.08h12"/>
    <path id="top" class="cls-10" d="M133,7.08h12"/>
  </g>
  <path id="Vector_2-2-2" data-name="Vector 2-2-2" class="cls-3" d="M160.94,7.16,156.5,12l4.44,4.84"/>
  <g id="enter-icon">
    <path id="Vector-2-2" class="cls-3" d="M179,17l4-5-4-5"/>
    <path class="cls-3" d="M183,12H173"/>
  </g>
  <g>
    <g>
      <rect class="cls-4" x="125.79" y="95.78" width="10" height="10" rx="1"/>
      <rect class="cls-4" x="136.79" y="95.78" width="10" height="10" rx="1"/>
    </g>
    <rect class="cls-4" x="130.79" y="83.78" width="11" height="11" rx="1"/>
  </g>
  <g id="Group-2">
    <path class="cls-4" d="M169.63,107.17h-2.11a1.08,1.08,0,0,1-1.17-1v0a.61.61,0,0,1,0-.19v-1.49a.38.38,0,0,0-.25-.38c-.55-.29-1.1-.6-1.63-.93a.39.39,0,0,0-.48,0c-.43.25-.86.5-1.3.74a1.07,1.07,0,0,1-1.49-.26l-.09-.16c-.71-1.21-1.41-2.42-2.11-3.64a1.08,1.08,0,0,1,.29-1.51.51.51,0,0,1,.16-.09c.43-.25.85-.5,1.29-.73a.38.38,0,0,0,.21-.41V95.26a.37.37,0,0,0-.2-.4c-.44-.24-.86-.49-1.29-.74a1.11,1.11,0,0,1-.55-1.46,1.74,1.74,0,0,1,.11-.18c.69-1.2,1.39-2.4,2.09-3.6a1.08,1.08,0,0,1,1.44-.5l.14.08c.43.23.86.47,1.28.73a.42.42,0,0,0,.52,0c.52-.33,1.06-.64,1.6-.92a.39.39,0,0,0,.25-.42V86.33a1.06,1.06,0,0,1,1-1.12h4.45a1.06,1.06,0,0,1,1.1,1v1.63a.35.35,0,0,0,.24.38c.56.3,1.11.64,1.67,1a.49.49,0,0,0,.41,0c.44-.22.86-.49,1.29-.73a1.1,1.1,0,0,1,1.52.23.82.82,0,0,1,.12.2c.69,1.18,1.39,2.37,2.08,3.57A1.11,1.11,0,0,1,180,94h0a1.18,1.18,0,0,1-.19.11c-.42.24-.83.49-1.26.72a.35.35,0,0,0-.22.39v1.91a.54.54,0,0,0,.19.37c.42.26.86.5,1.29.74a1.11,1.11,0,0,1,.55,1.46l-.1.17c-.69,1.21-1.39,2.41-2.09,3.6a1.09,1.09,0,0,1-1.45.53h0a1,1,0,0,1-.17-.1c-.44-.25-.87-.52-1.32-.75a.48.48,0,0,0-.37,0c-.57.31-1.13.66-1.7,1a.35.35,0,0,0-.23.39v1.49a1.08,1.08,0,0,1-1,1.15h-.16A18.41,18.41,0,0,0,169.63,107.17Zm0-7.73a3.26,3.26,0,1,0-3.28-3.28,3.26,3.26,0,0,0,3.28,3.28Z"/>
  </g>
  <g>
    <path id="Vector-3-2" class="cls-4" d="M207.7,84.78l2.07.44,10,2c.2,0,.25.11.25.31v3.89h-1v1.45h-4.36V91.46h-14V92.9h-4.32V91.45h-1V87.26h.26l10.26-2.08c.6-.11,1.2-.24,1.79-.37Z"/>
    <path class="cls-4" d="M196.34,94.38h4.29v12.4h-4.29Z"/>
    <path id="Vector_3-2-2" data-name="Vector 3-2-2" class="cls-4" d="M214.64,94.38H219v12.4h-4.32Z"/>
    <path id="Vector_4-2-2" data-name="Vector 4-2-2" class="cls-4" d="M213.16,94.38h-11v12.4h11Z"/>
  </g>
  <g>
    <path class="cls-3" d="M195.13,8.22v10"/>
    <path class="cls-3" d="M199.13,8.22v10"/>
    <path class="cls-3" d="M203.13,8.22v10"/>
    <circle class="cls-3" cx="195.13" cy="15.22" r="1"/>
    <circle class="cls-3" cx="199.13" cy="11.22" r="1"/>
    <path class="cls-3" d="M204.13,13.22a1,1,0,1,1-1-1A1,1,0,0,1,204.13,13.22Z"/>
  </g>
  <g id="cart-icon-2">
    <path id="Path_6-2" data-name="Path 6-2" class="cls-3" d="M213,8.41l2.26.78.9,5.88h6.48"/>
    <g id="Ellipse_4-2" data-name="Ellipse 4-2">
      <path id="Vector-4-2" class="cls-4" d="M216.76,18.41a1,1,0,1,0-1.07-1.06,1,1,0,0,0,1.05,1h0Z"/>
      <path id="Vector_2-3-2" data-name="Vector 2-3-2" class="cls-4" d="M216.76,18.05a.7.7,0,0,0,.71-.69h0a.69.69,0,0,0-.7-.68h0a.69.69,0,0,0-.7.68h0a.69.69,0,0,0,.69.69Z"/>
    </g>
    <g id="Ellipse_4_1_2-2" data-name="Ellipse 4 1 2-2">
      <path id="Vector_3-3-2" data-name="Vector 3-3-2" class="cls-4" d="M221.48,18.41a1,1,0,1,0-1.07-1.06,1,1,0,0,0,1.05,1h0Z"/>
      <path id="Vector_4-3-2" data-name="Vector 4-3-2" class="cls-4" d="M221.48,18.05a.69.69,0,0,0,.7-.68h0a.69.69,0,0,0-.7-.68h0a.69.69,0,0,0-.71.67h0a.7.7,0,0,0,.71.69Z"/>
    </g>
    <path class="cls-4" d="M215.27,11.56a1,1,0,0,1,.93-1l5.51-.4a1,1,0,0,1,1.07.92,1,1,0,0,1,0,.25l-.35,2.08a1,1,0,0,1-.83.82l-4.46.73a1,1,0,0,1-1-.53l-.7-1.36a1,1,0,0,1-.11-.46Z"/>
  </g>
  <path id="heart-2" class="cls-11" d="M239.68,10.09a2.58,2.58,0,0,0-4.16,1.14c-1.25-2.16-3-2.14-4.15-1.14a2.39,2.39,0,0,0-.29,3.35,4,4,0,0,0,.29.29l4.15,3.7,4.16-3.7a2.38,2.38,0,0,0,.28-3.35v0A1.72,1.72,0,0,0,239.68,10.09Z"/>
  <path class="cls-12" d="M19.36,121.81v-3.17H15.92a4,4,0,0,0-3.56,3.55v3.38h-3v3.59h3V138h3.52v-8.92H19l.4-3.51H15.9V123a1.18,1.18,0,0,1,1.1-1.22h0Z"/>
  <g id="instagram-icon-2">
    <path id="Vector_2-4-2" data-name="Vector 2-4-2" class="cls-12" d="M48.43,139.4h-7.7a6.24,6.24,0,0,1-6.23-6.23v-7.7a6.24,6.24,0,0,1,6.23-6.23h7.7a6.24,6.24,0,0,1,6.23,6.23v7.7A6.27,6.27,0,0,1,48.43,139.4Zm-7.7-17.91a4,4,0,0,0-4,4v7.7a4,4,0,0,0,4,4h7.7a4,4,0,0,0,4-4v-7.7a4,4,0,0,0-4-4Z"/>
    <path id="Vector_3-4-2" data-name="Vector 3-4-2" class="cls-12" d="M44.59,134.46a5.16,5.16,0,1,1,5.15-5.17h0A5.17,5.17,0,0,1,44.59,134.46Zm0-8.28a3.13,3.13,0,1,0,3.12,3.14h0A3.13,3.13,0,0,0,44.59,126.18Z"/>
    <path id="Vector_4-4" data-name="Vector 4-4" class="cls-12" d="M50,124.75a.88.88,0,1,0-.87-.89h0a.87.87,0,0,0,.87.87h0Z"/>
  </g>
  <g id="gmail-icon-2">
    <path id="Vector_2-5-2" data-name="Vector 2-5-2" class="cls-12" d="M77.31,126.17l1.77-1.81a6.73,6.73,0,0,0-5.65-1.2,5.44,5.44,0,0,0-4.58,4.74,6.72,6.72,0,0,0,1.43,5.49,5.8,5.8,0,0,0,4.84,1.91c2.72,0,5.93-2.25,5.73-7.34h-6v2.39h3.42a3.13,3.13,0,0,1-2.9,2.41c-1.56.1-3.63-.42-4-2.91-.3-1.85.41-4,2.66-4.32A4.28,4.28,0,0,1,77.31,126.17Z"/>
    <path id="Vector_3-5-2" data-name="Vector 3-5-2" class="cls-12" d="M88.27,128H86.06v-2.21H84.47V128H82.26v1.59h2.21v2.21h1.59v-2.21h2.21Z"/>
  </g>
  <g id="whatsapp-icon">
    <path id="Vector_2-6-2" data-name="Vector 2-6-2" class="cls-13" d="M112.37,138.57a9.71,9.71,0,0,1-5.52-1.71l-4,1.56,1.4-4.12a9.74,9.74,0,1,1,8.08,4.27Zm-5.4-2.7.2.14a8.77,8.77,0,1,0-2-2l.12.18-.93,2.78Z"/>
    <path id="Vector_3-6" data-name="Vector 3-6" class="cls-13" d="M117.84,131.27a.42.42,0,0,1,.1.34c-.12.72-.74,3.36-3.92,2.25-3.66-1.29-6.31-3.58-7.17-6.61s1.6-3.84,2.11-3.66,1.79,2.43,1.61,2.93-1,1-1,1.47,3.26,3.66,4.18,3.4c.64-.18.7-1.15,1.31-1.27A4.83,4.83,0,0,1,117.84,131.27Z"/>
  </g>
  <path class="cls-14" d="M249.46,89.61l-11.68,11.68"/>
  <path class="cls-14" d="M249.46,101.29,237.78,89.61"/>
  <path class="cls-15" d="M247.4,13l1.82,2,2.18-4"/>
  <path class="cls-16" d="M224.66,130.45a12.4,12.4,0,0,1-12.36,12.44h-.09a12.17,12.17,0,0,1-2-.16,12.45,12.45,0,1,1,14.47-12.28Z"/>
  <path class="cls-1" d="M217.2,127.66c0,.14,0,.13-.13.13h-1.38a2.22,2.22,0,0,0-.81.13,1.49,1.49,0,0,0-1,1.15,2.07,2.07,0,0,0-.06.5v2.17s0,.06.06,0H217c.1,0,.1,0,.08.1l-.45,3v.24a.06.06,0,0,1-.06.06H214c-.05,0-.07,0-.07.07v7.55a12.58,12.58,0,0,1-1.62.1,12.17,12.17,0,0,1-2-.16v-7.42c0-.16,0-.14-.15-.14h-2.7c-.13,0-.12,0-.12-.12v-3.19c0-.05,0-.07.06-.07h2.77c.15,0,.13,0,.13-.14V129.1a5.43,5.43,0,0,1,.35-1.91,3.72,3.72,0,0,1,2.55-2.31,5.35,5.35,0,0,1,1.64-.2,7,7,0,0,1,1.21.07c.4.07.79.08,1.18.15.09,0,.09,0,.09.1v2.66Z"/>
  <path class="cls-17" d="M243,120.44l7.17,6.24.45-.38.92-.81.89-.78,1.14-1,.92-.8,1-.89,1.17-1a5.72,5.72,0,0,1,.65-.55v8.84a.25.25,0,0,0,0,.17h0l-.43.37-1.47,1.27-1.18,1-1,.9-.74.65-1.05.91c-.37.33-.76.65-1.12,1h0c-.12.11-.14.11-.27,0l-.94-.82c-.34-.29-.69-.59-1-.89l-1-.89-1.33-1.15c-.44-.4-.89-.79-1.34-1.18l-1.17-1-.25-.22v-8.86A.2.2,0,0,1,243,120.44Z"/>
  <path class="cls-18" d="M257.38,129.51h0c.15-.11.28-.24.42-.36l1.6-1.38,1.13-1,1.22-1.06,1-.86a4,4,0,0,0,1-1.13,3.54,3.54,0,0,0,.37-1,1.36,1.36,0,0,1,.07-.53v17.5a3.34,3.34,0,0,1-.51,1.76,3.41,3.41,0,0,1-1.53,1.33,3.92,3.92,0,0,1-1.12.28,3.27,3.27,0,0,1-1.28-.16,3.31,3.31,0,0,1-1.69-1.2,3.39,3.39,0,0,1-.65-1.58V129.51Z"/>
  <path class="cls-19" d="M243,129.46h0v10.1a3.37,3.37,0,0,1-5.33,2.79,2.61,2.61,0,0,1-.44-.37,3.22,3.22,0,0,1-.95-2,3.84,3.84,0,0,1,0-.48v-17c.05.14.07.3.11.45a3.58,3.58,0,0,0,1,1.54c.19.18.4.35.6.52l1.18,1,.84.75.91.78,1,.9.77.66A2.67,2.67,0,0,0,243,129.46Z"/>
  <path class="cls-20" d="M264.18,122.21a1.36,1.36,0,0,1-.07.53,4,4,0,0,1-.37,1,4.11,4.11,0,0,1-1,1.12l-1,.87-1.21,1-1.14,1-1.59,1.39a4.87,4.87,0,0,1-.42.35v-9h0c.18-.19.38-.34.57-.51s.44-.41.68-.59a3.07,3.07,0,0,1,.93-.53,3.22,3.22,0,0,1,1.3-.23,3.37,3.37,0,0,1,1.49.39,3.32,3.32,0,0,1,1.56,1.68,3.79,3.79,0,0,1,.21.65l.06.4A4,4,0,0,1,264.18,122.21Z"/>
  <path class="cls-17" d="M243,129.46c-.12-.08-.22-.19-.33-.28l-.77-.66-1-.9-.91-.78-.84-.75-1.18-1c-.2-.17-.41-.34-.6-.52a3.58,3.58,0,0,1-1-1.54,1.48,1.48,0,0,0-.11-.45,4.41,4.41,0,0,1,0-.89,2.88,2.88,0,0,1,.22-.92,2.71,2.71,0,0,1,.33-.63,3,3,0,0,1,.43-.52l.44-.38a2.76,2.76,0,0,1,.65-.36,3.1,3.1,0,0,1,1.38-.28,3.45,3.45,0,0,1,1.57.43,4.66,4.66,0,0,1,.81.59l1,.85v7.4A9.25,9.25,0,0,0,243,129.46Z"/>
  <g>
    <path class="cls-7" d="M11.63,152.13h0a2.39,2.39,0,0,1,2.4,2.4h0a2.39,2.39,0,0,1-2.4,2.4h0a2.39,2.39,0,0,1-2.4-2.4h0A2.39,2.39,0,0,1,11.63,152.13Z"/>
    <rect class="cls-7" x="14.83" y="152.13" width="10.4" height="4.8" rx="2.4"/>
    <path class="cls-7" d="M11.63,157.73h0a2.39,2.39,0,0,1,2.4,2.4h0a2.39,2.39,0,0,1-2.4,2.4h0a2.39,2.39,0,0,1-2.4-2.4h0A2.39,2.39,0,0,1,11.63,157.73Z"/>
    <path class="cls-7" d="M11.63,163.33h0a2.39,2.39,0,0,1,2.4,2.4h0a2.39,2.39,0,0,1-2.4,2.4h0a2.39,2.39,0,0,1-2.4-2.4h0A2.39,2.39,0,0,1,11.63,163.33Z"/>
    <rect class="cls-7" x="14.83" y="157.73" width="10.4" height="4.8" rx="2.4"/>
    <rect class="cls-7" x="14.83" y="163.33" width="10.4" height="4.8" rx="2.4"/>
  </g>
  <g id="filter-icon">
    <g>
      <rect class="cls-12" x="38.04" y="151.74" width="4.8" height="4.8"/>
      <rect class="cls-12" x="43.64" y="151.74" width="4.8" height="4.8"/>
      <rect class="cls-12" x="49.24" y="151.74" width="4.8" height="4.8"/>
      <rect class="cls-12" x="38.04" y="157.34" width="4.8" height="4.8"/>
      <rect class="cls-12" x="38.04" y="162.94" width="4.8" height="4.8"/>
      <rect class="cls-12" x="43.64" y="157.34" width="4.8" height="4.8"/>
      <rect class="cls-12" x="43.64" y="162.94" width="4.8" height="4.8"/>
      <rect class="cls-12" x="49.24" y="157.34" width="4.8" height="4.8"/>
      <rect class="cls-12" x="49.24" y="162.94" width="4.8" height="4.8"/>
    </g>
  </g>
  <path d="M263.22,9a4.5,4.5,0,0,0-3.08,1.29,6.36,6.36,0,0,0-1.49,2.1.53.53,0,0,0,0,.39,6.46,6.46,0,0,0,1.49,2.1,4.33,4.33,0,0,0,6.17,0,6.46,6.46,0,0,0,1.49-2.1.53.53,0,0,0,0-.39,6.36,6.36,0,0,0-1.49-2.1A4.53,4.53,0,0,0,263.22,9Zm-2.3,3.58a2.31,2.31,0,1,1,2.3,2.31A2.3,2.3,0,0,1,260.92,12.54Zm2.3-1a1,1,0,0,1-1,1,1.2,1.2,0,0,1-.33,0,.13.13,0,0,0-.18.12,1.26,1.26,0,0,0,.05.33A1.54,1.54,0,1,0,263.29,11a.13.13,0,0,0-.12.18,1.26,1.26,0,0,1,.05.33Z"/>
  <g id="user-icon">
    <path id="Ellipse_3" data-name="Ellipse 3" class="cls-9" d="M61.41,88.9a4.5,4.5,0,1,1-4.5-4.5A4.5,4.5,0,0,1,61.41,88.9Z"/>
    <g id="Path_5" data-name="Path 5">
      <g class="cls-21">
        <path class="cls-7" d="M44.91,104.9a3,3,0,0,0,6,0Zm18,0a3,3,0,0,0,6,0Zm-12,0v-4.29h-6v4.29Zm0-4.29a5.87,5.87,0,0,1,6-5.71v-6a11.87,11.87,0,0,0-12,11.71Zm6-5.71a5.87,5.87,0,0,1,6,5.71h6a11.87,11.87,0,0,0-12-11.71Zm6,5.71v4.29h6v-4.29Z"/>
      </g>
    </g>
  </g>
  <g id="shindi">
    <g id="Group_585" data-name="Group 585">
      <g class="cls-22">
        <g id="Group_584" data-name="Group 584">
          <path id="Path_2233" data-name="Path 2233" class="cls-23" d="M139.66,135.49a1.37,1.37,0,0,0,1.22.72,1.33,1.33,0,0,0,1.35-1.27c0-2.28-4.67-2.26-4.67-6.05a3.31,3.31,0,0,1,6.28-1.47h0a1,1,0,0,1-.41,1.36h0a1,1,0,0,1-1.29-.37h0a1.33,1.33,0,0,0-1.23-.72,1.29,1.29,0,0,0-1.36,1.24v0h0c0,2.24,4.66,2.28,4.66,6.05a3.31,3.31,0,0,1-6.3,1.4h0a1,1,0,0,1,.41-1.35h0a1,1,0,0,1,1.32.39h0Z"/>
          <path id="Path_2234" data-name="Path 2234" class="cls-24" d="M186.09,121.69h0a1.16,1.16,0,1,1-1.13,1.18h0a1.14,1.14,0,0,1,1.12-1.16h0"/>
          <path id="Path_2235" data-name="Path 2235" class="cls-24" d="M158.57,121.69h0a1.16,1.16,0,1,1,.05,2.31,1.15,1.15,0,0,1-1.18-1.13h0a1.14,1.14,0,0,1,1.12-1.16h0"/>
          <path id="Path_2236" data-name="Path 2236" class="cls-23" d="M179.21,129.9v4a2,2,0,0,1-3.93.08v-4.14a2,2,0,0,1,3.91-.48v.48m-2-4h0a4,4,0,0,0-3.93,4v4.06a3.93,3.93,0,1,0,7.86.19V122.85a1,1,0,1,0-2-.33h0v3.89a3.86,3.86,0,0,0-2-.54Z"/>
          <path id="Path_2237" data-name="Path 2237" class="cls-23" d="M166.43,125.87h0a4,4,0,0,1,3.94,4V137a1,1,0,0,1-2,0h0V129.9a2,2,0,0,0-3.9-.48v.16a1,1,0,0,0,0,.24V137a1,1,0,0,1-.95,1,1,1,0,0,1-1-.94h0V129.9a4,4,0,0,1,3.93-4"/>
          <path id="Path_2238" data-name="Path 2238" class="cls-23" d="M150.71,125.87h0a4,4,0,0,1,3.93,4V137a1,1,0,0,1-2,.08h0V129.9a2,2,0,0,0-3.88-.65V137a1,1,0,0,1-2,.08h0V122.85a1,1,0,0,1,.94-1,1,1,0,0,1,1,.94h0v3.65a3.85,3.85,0,0,1,2-.54"/>
        </g>
      </g>
    </g>
  </g>
</svg>
