<svg width="14" height="14" viewBox="0 0 14 14" fill="none" xmlns="http://www.w3.org/2000/svg">
<g id="cart-icon">
<rect id="frame" x="1" y="1.00002" width="12" height="12" rx="2" stroke="#888989" stroke-opacity="0.1"/>
<g id="icon">
<g id="Path_6_1_">
<path d="M4.5 4.50002L5.62737 4.89218L6.08091 7.83338H9.32048" fill="#2D2D2E"/>
<path d="M4.5 4.50002L5.62737 4.89218L6.08091 7.83338H9.32048" stroke="#2D2D2E" stroke-linecap="round" stroke-linejoin="round"/>
</g>
<path id="Vector" d="M6.39059 9.50019C6.6864 9.50019 6.9262 9.267 6.9262 8.97935C6.9262 8.6917 6.6864 8.45851 6.39059 8.45851C6.09478 8.45851 5.85498 8.6917 5.85498 8.97935C5.85498 9.267 6.09478 9.50019 6.39059 9.50019Z" fill="#2D2D2E"/>
<path id="Vector_2" d="M6.39061 9.32232C6.58558 9.32232 6.74363 9.16862 6.74363 8.97904C6.74363 8.78945 6.58558 8.63576 6.39061 8.63576C6.19565 8.63576 6.0376 8.78945 6.0376 8.97904C6.0376 9.16862 6.19565 9.32232 6.39061 9.32232Z" fill="#2D2D2E"/>
<path id="Vector_3" d="M8.74703 9.50019C9.04284 9.50019 9.28264 9.267 9.28264 8.97935C9.28264 8.6917 9.04284 8.45851 8.74703 8.45851C8.45123 8.45851 8.21143 8.6917 8.21143 8.97935C8.21143 9.267 8.45123 9.50019 8.74703 9.50019Z" fill="#2D2D2E"/>
<path id="Vector_4" d="M8.74706 9.32232C8.94202 9.32232 9.10007 9.16862 9.10007 8.97904C9.10007 8.78945 8.94202 8.63576 8.74706 8.63576C8.55209 8.63576 8.39404 8.78945 8.39404 8.97904C8.39404 9.16862 8.55209 9.32232 8.74706 9.32232Z" fill="#2D2D2E"/>
<path id="Rectangle 1" d="M5.88152 6.31833C5.53188 5.99378 5.71988 5.40868 6.19313 5.34854L8.21259 5.09195C8.86322 5.00928 9.41595 5.56478 9.33002 6.21499L9.27236 6.65129C9.21659 7.07331 8.89976 7.41376 8.48284 7.49968L7.32606 7.7381C6.80761 7.84495 6.29571 7.52927 6.15842 7.01804L6.04201 6.58457C6.0146 6.4825 5.95898 6.39022 5.88152 6.31833Z" fill="#2D2D2E"/>
</g>
</g>
</svg>
