<svg width="12" height="11" viewBox="0 0 12 11" fill="none" xmlns="http://www.w3.org/2000/svg">
<g id="cart-icon">
<path id="Path_6_1_" d="M1 1L3.25473 1.78432L4.16181 7.66672H10.641" stroke="#2D2D2E" stroke-linecap="round" stroke-linejoin="round"/>
<g id="Ellipse_4_1_">
<path id="Vector" d="M4.78112 11C5.37274 11 5.85233 10.5336 5.85233 9.95833C5.85233 9.38303 5.37274 8.91666 4.78112 8.91666C4.1895 8.91666 3.7099 9.38303 3.7099 9.95833C3.7099 10.5336 4.1895 11 4.78112 11Z" fill="#2D2D2E"/>
<path id="Vector_2" d="M4.7811 10.6445C5.17103 10.6445 5.48713 10.3371 5.48713 9.95792C5.48713 9.57875 5.17103 9.27136 4.7811 9.27136C4.39117 9.27136 4.07507 9.57875 4.07507 9.95792C4.07507 10.3371 4.39117 10.6445 4.7811 10.6445Z" fill="#2D2D2E"/>
</g>
<g id="Ellipse_4_1__2">
<path id="Vector_3" d="M9.49407 11C10.0857 11 10.5653 10.5336 10.5653 9.95833C10.5653 9.38303 10.0857 8.91666 9.49407 8.91666C8.90245 8.91666 8.42285 9.38303 8.42285 9.95833C8.42285 10.5336 8.90245 11 9.49407 11Z" fill="#2D2D2E"/>
<path id="Vector_4" d="M9.49412 10.6445C9.88405 10.6445 10.2001 10.3371 10.2001 9.95792C10.2001 9.57875 9.88405 9.27136 9.49412 9.27136C9.10419 9.27136 8.78809 9.57875 8.78809 9.95792C8.78809 10.3371 9.10419 10.6445 9.49412 10.6445Z" fill="#2D2D2E"/>
</g>
<path id="Rectangle 1" d="M3.28723 4.15277C3.28723 3.62836 3.69233 3.19303 4.21539 3.15536L9.73098 2.75806C10.3772 2.71152 10.8964 3.2824 10.789 3.92134L10.4383 6.00627C10.3673 6.42877 10.035 6.75906 9.61204 6.82755L5.14762 7.55056C4.72017 7.61979 4.29673 7.40604 4.09859 7.02102L3.39807 5.6598C3.32523 5.51827 3.28723 5.36139 3.28723 5.20221V4.15277Z" fill="#2D2D2E"/>
</g>
</svg>
