<svg width="25" height="25" viewBox="0 0 25 25" fill="none" xmlns="http://www.w3.org/2000/svg">
<g id="cart-icon">
<path id="Path_6_1_" d="M2 2.28931L6.96041 4.01481L8.95598 16.9561H23.2101" stroke="#707221" stroke-width="3" stroke-linecap="round" stroke-linejoin="round"/>
<g id="Ellipse_4_1_">
<path id="Vector" d="M10.3186 24.2893C11.6202 24.2893 12.6753 23.2633 12.6753 21.9976C12.6753 20.732 11.6202 19.7059 10.3186 19.7059C9.01704 19.7059 7.96191 20.732 7.96191 21.9976C7.96191 23.2633 9.01704 24.2893 10.3186 24.2893Z" fill="#707221"/>
<path id="Vector_2" d="M10.3187 23.5072C11.1766 23.5072 11.872 22.8309 11.872 21.9968C11.872 21.1626 11.1766 20.4863 10.3187 20.4863C9.46086 20.4863 8.76544 21.1626 8.76544 21.9968C8.76544 22.8309 9.46086 23.5072 10.3187 23.5072Z" fill="#707221"/>
</g>
<g id="Ellipse_4_1__2">
<path id="Vector_3" d="M20.6875 24.2893C21.989 24.2893 23.0442 23.2633 23.0442 21.9976C23.0442 20.732 21.989 19.7059 20.6875 19.7059C19.3859 19.7059 18.3308 20.732 18.3308 21.9976C18.3308 23.2633 19.3859 24.2893 20.6875 24.2893Z" fill="#707221"/>
<path id="Vector_4" d="M20.6876 23.5072C21.5454 23.5072 22.2409 22.8309 22.2409 21.9968C22.2409 21.1626 21.5454 20.4863 20.6876 20.4863C19.8298 20.4863 19.1343 21.1626 19.1343 21.9968C19.1343 22.8309 19.8298 23.5072 20.6876 23.5072Z" fill="#707221"/>
</g>
<path id="Rectangle 1" d="M7.03192 8.10883C7.03192 7.58443 7.43702 7.14909 7.96008 7.11142L22.731 6.04746C23.3772 6.00091 23.8964 6.5718 23.789 7.21074L22.6217 14.1513C22.5506 14.5738 22.2183 14.9041 21.7954 14.9725L10.2647 16.8399C9.8372 16.9092 9.41376 16.6954 9.21562 16.3104L7.14276 12.2825C7.06992 12.141 7.03192 11.9841 7.03192 11.8249V8.10883Z" fill="#707221"/>
</g>
</svg>
