<svg width="18" height="18" viewBox="0 0 18 18" fill="none" xmlns="http://www.w3.org/2000/svg">
<g id="facebook-icon">
<path id="Vector" d="M14.6418 17H3.35821C2.05473 17 1 15.9446 1 14.6403V3.35968C1 2.05538 2.05473 1 3.35821 1H14.6418C15.9453 1 17 2.05538 17 3.35968V14.6503C17 15.9446 15.9453 17 14.6418 17Z" stroke="#2D2D2E" stroke-linecap="round" stroke-linejoin="round"/>
<path id="Vector_2" d="M11.5075 5.74923V4.16615C11.5075 4.16615 9.89557 4.14624 9.78611 4.14624C9.05975 4.14624 8.00502 4.97262 8.00502 5.91849C8.00502 6.97387 8.00502 7.61108 8.00502 7.61108H6.49258V9.40324H7.98512V13.8438H9.74631V9.38333H11.3085L11.5075 7.63099H9.77617C9.77617 7.63099 9.77617 6.5557 9.77617 6.34661C9.77617 6.03796 10.005 5.73927 10.3533 5.73927C10.5821 5.73927 11.5075 5.74923 11.5075 5.74923Z" fill="#2D2D2E"/>
</g>
</svg>
