<svg width="18" height="18" viewBox="0 0 18 18" fill="none" xmlns="http://www.w3.org/2000/svg">
<g id="gmail-icon">
<path id="Vector" d="M14.6517 17H3.35821C2.05472 17 1 15.9453 1 14.6418V3.35821C1 2.05473 2.05472 1 3.35821 1H14.6418C15.9453 1 17 2.05473 17 3.35821V14.6418C17 15.9453 15.9453 17 14.6517 17Z" stroke="#2D2D2E" stroke-linecap="round" stroke-linejoin="round"/>
<path id="Vector_2" d="M8.40302 7.50748L9.28859 6.60201C9.28859 6.60201 8.21396 5.63684 6.46272 6.005C4.84083 6.3433 4.31347 7.47763 4.17416 8.37315C4.03486 9.22887 4.19407 10.3732 4.89058 11.1194C5.39805 11.6667 6.00501 12.0746 7.30849 12.0746C8.67168 12.0746 10.2737 10.9503 10.1742 8.403H7.16919V9.59703H8.88063C8.88063 9.59703 8.65178 10.7314 7.4279 10.801C6.65178 10.8508 5.61695 10.5921 5.408 9.34828C5.25874 8.4229 5.61695 7.35823 6.74133 7.18907C7.87566 7.03982 8.40302 7.50748 8.40302 7.50748Z" fill="#2D2D2E"/>
<path id="Vector_3" d="M13.8856 8.44273H12.7811V7.33826H11.9851V8.44273H10.8806V9.23875H11.9851V10.3432H12.7811V9.23875H13.8856V8.44273Z" fill="#2D2D2E"/>
</g>
</svg>
