<svg width="18" height="18" viewBox="0 0 18 18" fill="none" xmlns="http://www.w3.org/2000/svg">
<g id="instagram-icon">
<path id="Vector" d="M14.6418 17H3.35821C2.05473 17 1 15.9453 1 14.6418V3.35821C1 2.05473 2.05473 1 3.35821 1H14.6418C15.9453 1 17 2.05473 17 3.35821V14.6418C17 15.9453 15.9453 17 14.6418 17Z" stroke="#2D2D2E" stroke-linecap="round" stroke-linejoin="round"/>
<path id="Vector_2" d="M10.9104 14.0249H7.05968C5.34824 14.0249 3.94525 12.6319 3.94525 10.9105V7.05974C3.94525 5.3483 5.33829 3.94531 7.05968 3.94531H10.9104C12.6219 3.94531 14.0249 5.33835 14.0249 7.05974V10.9105C14.0249 12.6219 12.6219 14.0249 10.9104 14.0249ZM7.05968 5.06969C5.96515 5.06969 5.06963 5.96521 5.06963 7.05974V10.9105C5.06963 12.005 5.96515 12.9005 7.05968 12.9005H10.9104C12.005 12.9005 12.9005 12.005 12.9005 10.9105V7.05974C12.9005 5.96521 12.005 5.06969 10.9104 5.06969H7.05968Z" fill="#2D2D2E"/>
<path id="Vector_3" d="M8.99008 11.5572C7.56719 11.5572 6.41296 10.403 6.41296 8.98007C6.41296 7.55718 7.56719 6.40295 8.99008 6.40295C10.413 6.40295 11.5672 7.55718 11.5672 8.98007C11.5672 10.403 10.403 11.5572 8.99008 11.5572ZM8.99008 7.41788C8.12441 7.41788 7.42789 8.1144 7.42789 8.98007C7.42789 9.84574 8.12441 10.5423 8.99008 10.5423C9.85575 10.5423 10.5523 9.84574 10.5523 8.98007C10.5523 8.12435 9.8458 7.41788 8.99008 7.41788Z" fill="#2D2D2E"/>
<path id="Vector_4" d="M11.6865 6.70155C11.9283 6.70155 12.1243 6.50554 12.1243 6.26374C12.1243 6.02194 11.9283 5.82593 11.6865 5.82593C11.4447 5.82593 11.2487 6.02194 11.2487 6.26374C11.2487 6.50554 11.4447 6.70155 11.6865 6.70155Z" fill="#2D2D2E"/>
</g>
</svg>
