<svg width="34" height="34" viewBox="0 0 34 34" fill="none" xmlns="http://www.w3.org/2000/svg">
<g id="language-icon">
<path id="white" d="M17 33.2893C25.8366 33.2893 33 26.1259 33 17.2893C33 8.45275 25.8366 1.28931 17 1.28931C8.16344 1.28931 1 8.45275 1 17.2893C1 26.1259 8.16344 33.2893 17 33.2893Z" fill="white" stroke="#888989" stroke-opacity="0.1" stroke-linecap="round" stroke-linejoin="round"/>
<g id="red">
<path id="Vector" d="M31.6087 14.308H19.9813V2.68071C19.0472 2.48195 18.0335 2.38257 17 2.38257C15.9664 2.38257 14.9528 2.48195 14.0186 2.68071V14.308H2.39128C2.19252 15.2422 2.09314 16.236 2.09314 17.2894C2.09314 18.3428 2.19252 19.3366 2.39128 20.2708H14.0186V31.8981C14.9726 32.0969 15.9664 32.1962 17 32.1962C18.0335 32.1962 19.0472 32.0969 19.9813 31.8981V20.2708H31.6087C31.8074 19.3167 31.9068 18.3229 31.9068 17.2894C31.9068 16.2559 31.8074 15.2621 31.6087 14.308Z" fill="#EA4435"/>
<path id="Vector_2" d="M8.05588 11.3267H10.0435L9.64594 8.94165L12.031 9.33917V7.35159L9.64594 7.74911L10.0435 5.36401H8.05588L8.45339 7.74911L6.0683 7.35159V9.33917L8.45339 8.94165L8.05588 11.3267Z" fill="#EA4435"/>
<path id="Vector_3" d="M23.9565 11.3267H25.9441L25.5466 8.94165L27.9317 9.33917V7.35159L25.5466 7.74911L25.9441 5.36401H23.9565L24.354 7.74911L21.9689 7.35159V9.33917L24.354 8.94165L23.9565 11.3267Z" fill="#EA4435"/>
<path id="Vector_4" d="M10.0435 23.2522H8.05588C8.05588 23.2522 8.37389 24.6833 8.49314 25.6373L6.0683 25.2398V27.2274L8.49314 26.8298C8.37389 27.7839 8.05588 29.2149 8.05588 29.2149H10.0435C10.0435 29.2149 9.72544 27.7839 9.60619 26.8298L12.031 27.2274V25.2398L9.60619 25.6373C9.72544 24.7031 10.0435 23.2522 10.0435 23.2522Z" fill="#EA4435"/>
<path id="Vector_5" d="M25.9441 23.2522H23.9565L24.354 25.6373L21.9689 25.2398V27.2274L24.354 26.8298L23.9565 29.2149H25.9441L25.5466 26.8298L27.9317 27.2274V25.2398L25.5466 25.6373L25.9441 23.2522Z" fill="#EA4435"/>
</g>
</g>
</svg>
