<svg width="256" height="45" viewBox="0 0 256 45" fill="none" xmlns="http://www.w3.org/2000/svg">
<g id="maxima-logo">
<path id="Vector" d="M23.5214 20.7029L25.5271 17.7235L26.7122 16.0353H34.0969H38.7464C39.0199 16.0353 39.3846 15.8366 39.5669 15.638L40.7521 13.8504C40.8433 13.6518 40.9345 13.4532 40.9345 13.2546V12.6587C40.9345 12.0628 40.4786 11.5663 39.9316 11.5663H37.1966H29.812H26.7122H24.6154H21.3333H17.6866C17.0484 11.5663 16.7749 12.3608 17.0484 12.8573L19.2365 16.1346L20.4216 17.8229L22.4273 20.8022C22.7008 21.1001 23.2478 21.1001 23.5214 20.7029Z" fill="#61661D"/>
<g id="Group">
<path id="Vector_2" d="M42.1197 42.6506L31.7266 27.1581H26.6212L29.0827 30.7333L33.6411 37.4864L36.9231 42.3526C37.2878 42.8492 37.6525 43.3457 38.1995 43.6437C38.6553 44.0409 39.2023 44.2395 39.7494 44.4381C40.2964 44.5375 40.8434 44.6368 41.3904 44.5375C41.9374 44.4381 42.4844 44.2395 43.0314 43.8423L42.1197 42.6506Z" fill="#797D26"/>
<path id="Vector_3" d="M39.2935 30.7333L38.8376 30.1374L38.1995 29.2436L37.0143 27.5553L36.7408 27.1581H34.5527L35.3732 28.2505L35.5556 28.5484L36.6496 30.1374L37.1054 30.7333L38.1995 32.2229L45.0371 41.8561C45.4017 41.3595 45.7664 40.6643 45.9487 40.0685L39.2935 30.7333Z" fill="#797D26"/>
</g>
<g id="Group_2">
<path id="Vector_4" d="M45.0371 12.4601L35.6467 25.6861L34.5527 27.1891H36.7408L38.1995 25.1852L39.2935 23.582L45.9487 14.1634C45.7664 13.5623 45.4017 12.9611 45.0371 12.4601Z" fill="#707221"/>
<path id="Vector_5" d="M38.7465 16.0672H34.0969L29.265 23.3816L29.0827 23.6822L27.624 25.8865L26.6212 27.2893H31.7266L39.4759 15.6664C39.3847 15.8668 39.02 16.0672 38.7465 16.0672Z" fill="#707221"/>
</g>
<g id="Group_3">
<path id="Vector_6" d="M98.5527 14.9959C97.3675 13.5062 95.9089 12.2152 94.2678 11.3214C92.6268 10.4276 90.8034 9.93103 88.7977 9.93103C86.6097 9.93103 84.604 10.5269 82.6895 11.7186C80.7749 12.9104 79.2251 14.4993 78.0399 16.4855C76.8547 14.4993 75.3049 13.0097 73.3903 11.7186C71.4758 10.5269 69.4701 9.93103 67.1909 9.93103C65.7322 9.93103 64.3647 10.229 62.906 10.8248C61.5385 11.4207 60.2621 12.2152 59.1681 13.2083C59.1681 12.5131 59.0769 11.9172 58.8946 11.52C58.7123 11.1228 58.4388 10.7255 58.0741 10.5269C57.7094 10.3283 57.2536 10.1297 56.7977 10.0303C56.3419 9.93103 55.7949 9.93103 55.2479 9.93103H53.698V35.156C53.698 36.0498 53.7892 36.8442 54.0627 37.6387C54.3362 38.4332 54.7009 39.1284 55.1567 39.7242C55.6126 40.3201 56.2507 40.8167 56.8889 41.2139C57.5271 41.6112 58.3476 41.8098 59.1681 41.8098V39.327V26.3173C59.1681 25.0263 59.3504 23.8345 59.7151 22.5435C60.0798 21.3518 60.6268 20.16 61.265 19.1669C61.9943 18.1738 62.8148 17.3793 63.8177 16.7835C64.8205 16.1876 65.9145 15.8897 67.1909 15.8897C68.4673 15.8897 69.5613 16.1876 70.5641 16.7835C71.567 17.3793 72.3875 18.1738 73.1168 19.1669C73.8462 20.16 74.3932 21.2525 74.7579 22.5435C75.1225 23.7352 75.3049 25.0263 75.3049 26.3173V35.2553V41.9091H80.7749V26.3173C80.7749 25.0263 80.9573 23.8345 81.322 22.5435C81.6866 21.3518 82.2336 20.16 82.8718 19.1669C83.6012 18.1738 84.4217 17.3793 85.4245 16.7835C86.4274 16.1876 87.5214 15.8897 88.7977 15.8897C90.0741 15.8897 91.1681 16.1876 92.171 16.7835C93.1738 17.3793 93.9943 18.1738 94.7237 19.1669C95.453 20.16 96 21.2525 96.3647 22.5435C96.7294 23.7352 96.9117 25.0263 96.9117 26.3173V27.9063C96.9117 29.098 96.9117 30.4883 96.8205 32.0773C96.7294 33.6663 96.9117 35.156 97.094 36.5463C97.3675 37.9367 97.8234 39.2277 98.6439 40.2208C99.3732 41.2139 100.65 41.8098 102.291 41.8098V26.3173C102.291 24.2318 101.926 22.2456 101.288 20.2593C100.741 18.2731 99.7379 16.5848 98.5527 14.9959Z" fill="#2D2D2E"/>
<path id="Vector_7" d="M130.37 16.2869C129.823 15.1945 129.094 14.3007 128.274 13.5062C127.362 12.7117 126.45 12.1159 125.447 11.52C124.444 11.0234 123.35 10.6262 122.165 10.3283C120.98 10.0303 119.886 9.93103 118.883 9.93103C116.969 9.93103 115.145 10.229 113.322 10.9241C111.499 11.6193 109.949 12.7117 108.672 14.2014C108.946 14.4 109.219 14.6979 109.584 14.9959C109.949 15.2938 110.313 15.5917 110.678 15.8897C111.043 16.1876 111.407 16.3862 111.863 16.5849C112.228 16.7835 112.593 16.8828 112.866 16.8828C113.048 16.8828 113.413 16.7835 113.869 16.5849C114.325 16.3862 114.781 16.1876 115.328 15.989C115.875 15.7904 116.422 15.4924 117.06 15.3931C117.698 15.1945 118.245 15.0952 118.883 15.0952C119.521 15.0952 120.251 15.1945 121.071 15.3931C121.892 15.5917 122.621 15.8897 123.35 16.2869C124.08 16.6842 124.627 17.1807 125.174 17.8759C125.63 18.5711 125.903 19.2662 125.903 20.16C125.903 20.3587 125.903 20.6566 125.903 21.0538C125.903 21.4511 125.903 21.8483 125.903 22.2456C125.903 22.6428 125.903 23.04 125.903 23.4373C125.903 23.7352 125.903 24.0332 125.994 24.1325C124.9 23.5366 123.806 23.04 122.621 22.8414C121.436 22.5435 120.251 22.4442 119.066 22.4442C117.698 22.4442 116.331 22.6428 114.872 23.04C113.413 23.4373 112.046 24.1325 110.86 24.927C109.675 25.8207 108.581 26.8139 107.852 28.1049C107.031 29.3959 106.667 30.8856 106.667 32.5739C106.667 34.2622 107.031 35.7518 107.852 37.0429C108.672 38.3339 109.675 39.4263 110.86 40.2208C112.046 41.1146 113.413 41.7105 114.872 42.207C116.331 42.6043 117.698 42.8029 119.066 42.8029C120.524 42.8029 121.983 42.6043 123.442 42.207C124.9 41.8098 126.177 41.1146 127.362 40.2208C127.909 40.8167 128.547 41.3132 129.185 41.7105C129.915 42.1077 130.644 42.3063 131.373 42.3063V18.869C131.373 18.5711 131.282 18.0745 131.1 17.578C130.644 16.9821 130.462 16.5848 130.37 16.2869ZM124.991 34.5601C124.536 35.156 123.897 35.6525 123.168 36.0498C122.439 36.447 121.709 36.7449 120.889 36.9436C120.068 37.1422 119.339 37.2415 118.701 37.2415C118.063 37.2415 117.333 37.1422 116.513 36.9436C115.692 36.7449 114.963 36.447 114.234 36.0498C113.504 35.6525 112.957 35.156 112.41 34.5601C111.954 33.9642 111.681 33.1697 111.681 32.2759C111.681 31.3821 111.954 30.5877 112.41 29.9918C112.866 29.3959 113.504 28.8994 114.234 28.4028C114.963 28.0056 115.692 27.7077 116.513 27.509C117.333 27.3104 118.063 27.2111 118.701 27.2111C119.339 27.2111 120.068 27.3104 120.889 27.509C121.709 27.7077 122.439 28.0056 123.168 28.4028C123.897 28.8001 124.444 29.2966 124.991 29.9918C125.447 30.5877 125.721 31.3821 125.721 32.2759C125.721 33.1697 125.538 33.9642 124.991 34.5601Z" fill="#2D2D2E"/>
<path id="Vector_8" d="M151.248 25.7214L151.339 25.8207C151.795 25.1256 152.342 24.1325 153.162 23.04C153.892 21.9476 154.712 20.7559 155.442 19.5642C156.171 18.3724 156.809 17.1807 157.356 15.989C157.903 14.7973 158.177 13.9035 158.177 13.0097C158.177 12.1159 157.994 11.1228 157.539 10.3283C157.174 9.43447 156.536 8.7393 155.897 8.14343L147.966 20.6566L140.855 9.93103H134.382L144.684 25.8207L134.291 41.9091H140.764L147.875 30.7863L155.077 41.9091H161.55L151.248 25.7214Z" fill="#2D2D2E"/>
<path id="Vector_9" d="M223.271 14.9959C222.085 13.5062 220.627 12.2152 218.986 11.3214C217.345 10.4276 215.521 9.93103 213.516 9.93103C211.328 9.93103 209.322 10.5269 207.407 11.7186C205.493 12.9104 203.943 14.4993 202.758 16.4855C201.573 14.4993 200.023 13.0097 198.108 11.7186C196.194 10.5269 194.188 9.93103 191.909 9.93103C190.45 9.93103 189.083 10.229 187.624 10.8248C186.256 11.4207 184.98 12.2152 183.886 13.2083C183.886 12.5131 183.795 11.9172 183.613 11.52C183.43 11.1228 183.157 10.7255 182.792 10.5269C182.427 10.3283 181.972 10.1297 181.516 10.0303C181.06 9.93103 180.513 9.93103 179.966 9.93103H178.416V35.156C178.416 36.0498 178.507 36.8442 178.781 37.6387C179.054 38.4332 179.419 39.1284 179.875 39.7242C180.33 40.3201 180.969 40.8167 181.607 41.2139C182.245 41.6112 183.066 41.8098 183.886 41.8098V39.327V26.3173C183.886 25.0263 184.068 23.8345 184.433 22.5435C184.798 21.2525 185.345 20.16 185.983 19.1669C186.712 18.1738 187.533 17.3793 188.536 16.7835C189.538 16.1876 190.632 15.8897 191.909 15.8897C193.185 15.8897 194.279 16.1876 195.282 16.7835C196.285 17.3793 197.105 18.1738 197.835 19.1669C198.564 20.16 199.111 21.2525 199.476 22.5435C199.84 23.7352 200.023 25.0263 200.023 26.3173V35.2553V41.9091H205.493V26.3173C205.493 25.0263 205.675 23.8345 206.04 22.5435C206.405 21.3518 206.952 20.16 207.59 19.1669C208.319 18.1738 209.14 17.3793 210.142 16.7835C211.145 16.1876 212.239 15.8897 213.516 15.8897C214.792 15.8897 215.886 16.1876 216.889 16.7835C217.892 17.3793 218.712 18.1738 219.442 19.1669C220.171 20.16 220.718 21.2525 221.083 22.5435C221.447 23.7352 221.63 25.0263 221.63 26.3173V27.9063C221.63 29.098 221.63 30.4883 221.538 32.0773C221.447 33.6663 221.63 35.156 221.812 36.5463C222.085 37.9367 222.541 39.2277 223.362 40.2208C224.091 41.2139 225.368 41.8098 227.009 41.8098V26.3173C227.009 24.2318 226.644 22.2456 226.006 20.2593C225.368 18.2731 224.456 16.5848 223.271 14.9959Z" fill="#2D2D2E"/>
<path id="Vector_10" d="M255.544 17.578C255.362 17.0814 255.179 16.5848 254.997 16.2869C254.45 15.1945 253.721 14.3007 252.9 13.5062C251.989 12.7117 251.077 12.1159 250.074 11.52C249.071 11.0234 247.977 10.6262 246.792 10.3283C245.607 10.0303 244.513 9.93103 243.51 9.93103C241.595 9.93103 239.772 10.229 237.949 10.9241C236.125 11.6193 234.575 12.7117 233.299 14.2014C233.573 14.4 233.846 14.6979 234.211 14.9959C234.575 15.2938 234.94 15.5917 235.305 15.8897C235.67 16.1876 236.034 16.3862 236.49 16.5849C236.855 16.7835 237.219 16.8828 237.493 16.8828C237.675 16.8828 238.04 16.7835 238.496 16.5849C238.952 16.3862 239.407 16.1876 239.954 15.989C240.501 15.7904 241.048 15.4924 241.687 15.3931C242.325 15.1945 242.872 15.0952 243.51 15.0952C244.148 15.0952 244.877 15.1945 245.698 15.3931C246.519 15.5917 247.248 15.8897 247.977 16.2869C248.707 16.6842 249.254 17.1807 249.801 17.8759C250.256 18.5711 250.53 19.2662 250.53 20.16C250.53 20.3587 250.53 20.6566 250.53 21.0538C250.53 21.4511 250.53 21.8483 250.53 22.2456C250.53 22.6428 250.53 23.04 250.53 23.4373C250.53 23.7352 250.53 24.0332 250.621 24.1325C249.527 23.5366 248.433 23.04 247.248 22.8414C246.063 22.5435 244.877 22.4442 243.692 22.4442C242.325 22.4442 240.957 22.6428 239.499 23.04C238.04 23.4373 236.672 24.1325 235.487 24.927C234.302 25.8207 233.208 26.8139 232.479 28.1049C231.658 29.3959 231.293 30.8856 231.293 32.5739C231.293 34.2622 231.658 35.7518 232.479 37.0429C233.299 38.3339 234.302 39.4263 235.487 40.2208C236.672 41.1146 238.04 41.7105 239.499 42.207C240.957 42.6043 242.325 42.8029 243.692 42.8029C245.151 42.8029 246.61 42.6043 248.068 42.207C249.527 41.8098 250.803 41.1146 251.989 40.2208C252.536 40.8167 253.174 41.3132 253.812 41.7105C254.541 42.1077 255.271 42.3063 256 42.3063V18.869C255.818 18.4718 255.726 18.0745 255.544 17.578ZM249.709 34.5601C249.254 35.156 248.615 35.6525 247.886 36.0498C247.157 36.447 246.427 36.7449 245.607 36.9436C244.786 37.1422 244.057 37.2415 243.419 37.2415C242.781 37.2415 242.051 37.1422 241.231 36.9436C240.41 36.7449 239.681 36.447 238.952 36.0498C238.222 35.6525 237.675 35.156 237.128 34.5601C236.672 33.9642 236.399 33.1697 236.399 32.2759C236.399 31.3821 236.672 30.5877 237.128 29.9918C237.584 29.3959 238.222 28.8994 238.952 28.4028C239.681 28.0056 240.41 27.7077 241.231 27.509C242.051 27.3104 242.781 27.2111 243.419 27.2111C244.057 27.2111 244.786 27.3104 245.607 27.509C246.427 27.7077 247.157 28.0056 247.886 28.4028C248.615 28.8001 249.162 29.2966 249.709 29.9918C250.165 30.5877 250.439 31.3821 250.439 32.2759C250.439 33.1697 250.165 33.9642 249.709 34.5601Z" fill="#2D2D2E"/>
<path id="Vector_11" d="M173.219 16.3863C173.219 15.5918 173.037 14.8966 172.855 14.2014C172.581 13.407 172.216 12.7118 171.761 12.1159C171.305 11.5201 170.667 11.0235 170.028 10.6263C169.39 10.229 168.57 10.0304 167.749 10.0304V10.1297V33.0705V33.6663V35.2553C167.749 35.3546 167.749 35.4539 167.749 35.4539C167.749 36.2484 167.932 36.9436 168.114 37.6388C168.387 38.4333 168.752 39.1284 169.208 39.7243C169.664 40.3202 170.302 40.8167 170.94 41.214C171.578 41.6112 172.399 41.8098 173.219 41.8098V32.9712V16.4856C173.219 16.5849 173.219 16.5849 173.219 16.3863Z" fill="#2D2D2E"/>
<path id="Vector_12" d="M171.852 2.18484C171.305 1.58897 170.758 1.09242 170.029 0.695175C169.299 0.297932 168.57 0.0993107 167.658 0V3.97243C167.658 4.6676 167.841 5.26347 168.023 5.95864C168.296 6.75313 168.661 7.4483 169.208 8.14348C169.755 8.73934 170.302 9.2359 171.031 9.63314C171.761 10.0304 172.49 10.229 173.402 10.3283V6.35589C173.402 5.66071 173.22 5.06485 173.037 4.36967C172.764 3.57519 172.399 2.7807 171.852 2.18484Z" fill="#2D2D2E"/>
<path id="Vector_13" d="M26.7122 36.149L25.527 34.4607L23.5213 31.4814C23.2478 31.0842 22.6096 31.0842 22.3361 31.4814L20.3304 34.4607L19.1452 36.149H11.8518L16.6837 28.8993L16.866 28.6014L18.3247 26.4166L19.3276 25.0262L16.866 21.451L12.3076 14.6979L9.11675 9.83168C8.75207 9.33513 8.3874 8.83858 7.84039 8.54065C7.38455 8.1434 6.92871 7.84547 6.3817 7.74616C5.83469 7.64685 5.28769 7.54754 4.64951 7.64685C4.1025 7.74616 3.55549 8.04409 3.00848 8.44133L3.829 9.63306L14.2222 25.1255L6.47287 36.6456L5.28769 38.4332C5.19652 38.6318 5.10535 38.8304 5.10535 39.029V39.6249C5.10535 40.2208 5.56119 40.7173 6.1082 40.7173H8.84324H16.2279H19.3276H21.3333H24.6153H28.262C28.9002 40.7173 29.1737 39.9228 28.9002 39.4263L26.7122 36.149Z" fill="#2D2D2E"/>
<path id="Vector_14" d="M11.396 25.0262L10.6667 23.9338L10.4843 23.6359L9.39031 22.0469L8.93447 21.451L7.84046 19.9614L0.911681 10.3282C0.547009 10.8248 0.182336 11.52 0 12.1158L6.65527 21.451L7.11111 22.0469L7.74929 22.9407L8.93447 24.629L9.20798 25.0262L7.74929 27.0124L6.65527 28.6014L0 38.0359C0.273504 38.7311 0.547009 39.327 0.911681 39.8235L10.302 26.6152L11.396 25.0262Z" fill="#2D2D2E"/>
</g>
</g>
</svg>
