<svg width="18" height="23" viewBox="0 0 18 23" fill="none" xmlns="http://www.w3.org/2000/svg">
<g id="user-icon">
<path id="Ellipse_3_1_" d="M13.5 6.28931C13.5 8.77459 11.4853 10.7893 9 10.7893C6.51472 10.7893 4.5 8.77459 4.5 6.28931C4.5 3.80403 6.51472 1.78931 9 1.78931C11.4853 1.78931 13.5 3.80403 13.5 6.28931Z" stroke="#707221" stroke-width="3" stroke-miterlimit="10" stroke-linecap="round" stroke-linejoin="round"/>
<g id="Path_5_1_">
<mask id="path-2-inside-1_323_9609" fill="white">
<path d="M0 22.2893V17.9987C0 13.1957 4.03676 9.28931 9 9.28931C13.9632 9.28931 18 13.1957 18 17.9987V22.2893"/>
</mask>
<path d="M-3 22.2893C-3 23.9462 -1.65685 25.2893 0 25.2893C1.65685 25.2893 3 23.9462 3 22.2893H-3ZM15 22.2893C15 23.9462 16.3431 25.2893 18 25.2893C19.6569 25.2893 21 23.9462 21 22.2893H15ZM3 22.2893V17.9987H-3V22.2893H3ZM3 17.9987C3 14.9446 5.60003 12.2893 9 12.2893V6.28931C2.4735 6.28931 -3 11.4468 -3 17.9987H3ZM9 12.2893C12.4 12.2893 15 14.9446 15 17.9987H21C21 11.4468 15.5265 6.28931 9 6.28931V12.2893ZM15 17.9987V22.2893H21V17.9987H15Z" fill="#707221" mask="url(#path-2-inside-1_323_9609)"/>
</g>
</g>
</svg>
