<svg width="18" height="18" viewBox="0 0 18 18" fill="none" xmlns="http://www.w3.org/2000/svg">
<g id="whatsapp-icon">
<path id="Vector" d="M14.6418 17H3.35821C2.05473 17 1 15.9453 1 14.6418V3.35821C1 2.05473 2.05473 1 3.35821 1H14.6418C15.9453 1 17 2.05473 17 3.35821V14.6418C16.9901 15.9453 15.9353 17 14.6418 17Z" stroke="#2D2D2E" stroke-linecap="round" stroke-linejoin="round"/>
<path id="Vector_2" d="M9.00001 13.8756C8.00499 13.8756 7.05971 13.5771 6.24379 13.0199L4.26369 13.796L4.96021 11.7363C4.41295 10.9304 4.12439 9.98508 4.12439 9.00996C4.12439 7.70648 4.63185 6.48259 5.54728 5.56717C6.4627 4.65175 7.68658 4.14429 8.99006 4.14429C10.2935 4.14429 11.5174 4.65175 12.4328 5.56717C13.3483 6.48259 13.8557 7.70648 13.8557 9.00996C13.8557 10.3134 13.3483 11.5373 12.4328 12.4527C11.5174 13.3682 10.2935 13.8756 9.00001 13.8756ZM6.30349 12.5224L6.403 12.592C7.15922 13.1393 8.06469 13.4378 9.00001 13.4378C11.4478 13.4378 13.4378 11.4478 13.4378 9.00001C13.4378 6.55225 11.4478 4.5622 9.00001 4.5622C6.55225 4.5622 4.5622 6.55225 4.5622 9.00001C4.5622 9.92538 4.84081 10.811 5.37812 11.5672L5.43782 11.6567L4.97016 13.0498L6.30349 12.5224Z" fill="#2D2D2E"/>
<path id="Vector_3" d="M11.7363 10.2239C11.7761 10.2736 11.796 10.3333 11.7861 10.393C11.7264 10.7513 11.4179 12.0746 9.82588 11.5174C7.99504 10.8707 6.67165 9.72638 6.24379 8.21394C5.81593 6.69156 7.03981 6.29355 7.29852 6.3831C7.55722 6.47265 8.19404 7.59703 8.10449 7.84579C8.01494 8.09454 7.58708 8.3234 7.59703 8.5821C7.60698 8.80101 9.22887 10.413 9.68658 10.2836C10.005 10.194 10.0348 9.70648 10.3433 9.64678C10.6518 9.60698 11.4677 9.93534 11.7363 10.2239Z" fill="#2D2D2E"/>
</g>
</svg>
